<?xml version="1.0" encoding="utf-8"?>
<!-- Generator: Adobe Illustrator 24.2.3, SVG Export Plug-In . SVG Version: 6.00 Build 0)  -->
<svg version="1.1" id="Layer_1" xmlns="http://www.w3.org/2000/svg" xmlns:xlink="http://www.w3.org/1999/xlink" x="0px" y="0px"
	 viewBox="0 0 88 88" style="enable-background:new 0 0 88 88;" xml:space="preserve">
<style type="text/css">
	.st0{fill:#AEACA5;}
</style>
<g transform="translate(0.000000,88.000000) scale(0.100000,-0.100000)">
	<path class="st0" d="M335,866C115,811-30,591,8,370C40,182,182,40,370,8c291-50,552,211,502,502C829,764,582,927,335,866z M604,802
		c91-42,149-100,194-190c35-72,37-81,37-172s-2-100-37-172c-45-91-103-147-196-191c-61-29-76-32-162-32s-101,3-162,32
		c-93,44-151,100-196,191c-35,72-37,81-37,171c0,87,3,102,32,163c40,85,97,147,172,186c78,42,122,52,213,48C523,833,554,825,604,802
		z"/>
	<path class="st0" d="M232,588c-31-31-2-67,116-142c40-25,81-46,92-46s52,21,92,46c118,75,147,111,116,142C631,605,249,605,232,588z
		"/>
	<path class="st0" d="M220,398c0-60,4-98,12-106c19-19,402-17,417,2c8,9,11,46,9,105l-3,91l-95-60c-53-34-106-60-121-60
		c-14,0-52,17-85,38c-32,21-76,48-96,61l-38,23V398z"/>
</g>
</svg>
