<?xml version="1.0" encoding="utf-8"?>
<!-- Generator: Adobe Illustrator 24.2.3, SVG Export Plug-In . SVG Version: 6.00 Build 0)  -->
<svg version="1.1" id="Layer_1" xmlns="http://www.w3.org/2000/svg" xmlns:xlink="http://www.w3.org/1999/xlink" x="0px" y="0px"
	 viewBox="0 0 88 88" style="enable-background:new 0 0 88 88;" xml:space="preserve">
<style type="text/css">
	.st0{fill:#AEACA5;}
</style>
<g transform="translate(0.000000,88.000000) scale(0.100000,-0.100000)">
	<path class="st0" d="M335,866C115,811-30,591,8,370C40,182,182,40,370,8c291-50,552,211,502,502C829,764,582,927,335,866z M604,802
		c91-42,149-100,194-190c35-72,37-81,37-172s-2-100-37-172c-45-91-103-147-196-191c-61-29-76-32-162-32s-101,3-162,32
		c-93,44-151,100-196,191c-35,72-37,81-37,171c0,87,3,102,32,163c40,85,97,147,172,186c78,42,122,52,213,48C523,833,554,825,604,802
		z"/>
	<path class="st0" d="M399,611c-24-24-29-38-29-75c0-42-2-46-25-46c-22,0-25-4-25-40s3-40,25-40h25V295V180h50h50v115v115h29
		c21,0,30,6,35,23c13,48,8,57-30,57c-34,0-35,1-32,33c3,28,7,32,36,35c30,3,32,6,32,43v39h-56C436,640,425,636,399,611z"/>
</g>
</svg>
