<?xml version="1.0" encoding="utf-8"?>
<!-- Generator: Adobe Illustrator 24.2.3, SVG Export Plug-In . SVG Version: 6.00 Build 0)  -->
<svg version="1.1" id="Layer_1" xmlns="http://www.w3.org/2000/svg" xmlns:xlink="http://www.w3.org/1999/xlink" x="0px" y="0px"
	 viewBox="0 0 88 88" style="enable-background:new 0 0 88 88;" xml:space="preserve">
<style type="text/css">
	.st0{fill:#AEACA5;}
</style>
<g transform="translate(0.000000,88.000000) scale(0.100000,-0.100000)">
	<path class="st0" d="M335,866C115,811-30,591,8,370C40,182,182,40,370,8c291-50,552,211,502,502C829,764,582,927,335,866z M604,802
		c91-42,149-100,194-190c35-72,37-81,37-172s-2-100-37-172c-45-91-103-147-196-191c-61-29-76-32-162-32s-101,3-162,32
		c-93,44-151,100-196,191c-35,72-37,81-37,171c0,87,3,102,32,163c40,85,97,147,172,186c78,42,122,52,213,48C523,833,554,825,604,802
		z"/>
	<path class="st0" d="M256,624c-34-34-9-78,41-72c22,2,29,9,31,31C334,633,290,658,256,624z"/>
	<path class="st0" d="M250,375V240h40h40v135v135h-40h-40V375z"/>
	<path class="st0" d="M380,375V240h40h40v81c0,90,10,119,43,119c39,0,47-18,47-112v-88h45h45v90c0,98-15,151-48,169
		c-30,16-84,13-110-5c-20-14-22-14-22,0c0,12-10,16-40,16h-40V375z"/>
</g>
</svg>
