<?xml version="1.0" encoding="utf-8"?>
<!-- Generator: Adobe Illustrator 24.2.3, SVG Export Plug-In . SVG Version: 6.00 Build 0)  -->
<svg version="1.1" id="Layer_1" xmlns="http://www.w3.org/2000/svg" xmlns:xlink="http://www.w3.org/1999/xlink" x="0px" y="0px"
	 viewBox="0 0 88 88" style="enable-background:new 0 0 88 88;" xml:space="preserve">
<style type="text/css">
	.st0{fill:#AEACA5;}
</style>
<g transform="translate(0.000000,88.000000) scale(0.100000,-0.100000)">
	<path class="st0" d="M335,866C115,811-30,591,8,370C40,182,182,40,370,8c291-50,552,211,502,502C829,764,582,927,335,866z M604,802
		c91-42,149-100,194-190c35-72,37-81,37-172s-2-100-37-172c-45-91-103-147-196-191c-61-29-76-32-162-32s-101,3-162,32
		c-93,44-151,100-196,191c-35,72-37,81-37,171c0,87,3,102,32,163c40,85,97,147,172,186c78,42,122,52,213,48C523,833,554,825,604,802
		z"/>
	<path class="st0" d="M375.3,613.6c-22.8-9.3-56.8-34.9-74.4-55.6c-25.5-32.2-31.7-48.8-35.6-100.6c-5.2-69.8,15.4-116.5,70.2-160.7
		c66.2-53.1,193.2-44.5,240.9,17.1c18.9,24.7,19,25.7-5.1,52.5l-27.3,20.1l-27.9-21c-60.3-55.7-160.2-24.1-174.4,55.2
		c-6.8,42.6,10.9,92.4,41.6,113.2c29.6,19.9,92.8,20.1,122.4,0.9c13.4-8,22.6-5.7,42,11.9c28,26,23.1,40.4-21.4,62.8
		C481.1,632.8,426,633.9,375.3,613.6z"/>
</g>
</svg>
