<?xml version="1.0" encoding="utf-8"?>
<!-- Generator: Adobe Illustrator 24.2.3, SVG Export Plug-In . SVG Version: 6.00 Build 0)  -->
<svg version="1.1" id="Layer_1" xmlns="http://www.w3.org/2000/svg" xmlns:xlink="http://www.w3.org/1999/xlink" x="0px" y="0px"
	 viewBox="0 0 88 88" style="enable-background:new 0 0 88 88;" xml:space="preserve">
<style type="text/css">
	.st0{fill:#AEACA5;}
</style>
<g transform="translate(0.000000,88.000000) scale(0.100000,-0.100000)">
	<path class="st0" d="M335,866C115,811-30,591,8,370C40,182,182,40,370,8c291-50,552,211,502,502C829,764,582,927,335,866z M604,802
		c91-42,149-100,194-190c35-72,37-81,37-172s-2-100-37-172c-45-91-103-147-196-191c-61-29-76-32-162-32s-101,3-162,32
		c-93,44-151,100-196,191c-35,72-37,81-37,171c0,87,3,102,32,163c40,85,97,147,172,186c78,42,122,52,213,48C523,833,554,825,604,802
		z"/>
	<path class="st0" d="M350,659c-97-44-144-117-144-224c0-78,15-118,68-173c31-33,75-62,96-62c5,0,10,11,10,25c0,20-5,25-24,25
		c-16,0-35,13-56,40c-38,49-34,61,8,25c34-28,67-33,76-9c9,23,8,24-15,24c-11,0-34,13-50,29c-24,25-29,38-29,80c0,27,5,53,10,56
		c6,3,10,24,10,46c0,41,8,46,42,28c27-14,149-14,176,0c34,18,42,13,42-28c0-22,5-43,10-46c6-3,10-29,10-56c0-42-5-55-29-80
		c-16-16-38-29-48-29c-17,0-19-6-15-62c2-35,6-65,7-66c18-20,116,62,148,122c30,57,30,165,0,221c-42,80-129,135-213,135
		C415,680,375,670,350,659z"/>
</g>
</svg>
